#!OML:ASF F:\twosubjects\two\Thursday\Session 1\Rory.ASF
:FULLY-SPECIFIED
:DEGREES
288
root 7.48086 18.3719 -9.88982 0.744564 -8.63561 4.39008
lowerback -5.00703 -0.100673 -4.677
upperback 1.54221 0.170189 0.233186
thorax 4.39878 -0.0468654 2.88317
lowerneck -8.31845 -3.14659 -2.56271
upperneck 32.3176 -9.24188 15.2044
head 13.1133 -2.68618 5.17163
rclavicle -2.56681e-014 1.11319e-014
rhumerus -33.1106 -15.0995 -77.6147
rradius 27.5279
rwrist 21.8078
rhand -24.6335 25.0622
rfingers 7.12502
rthumb 1.86557 -4.90939
lclavicle -2.56681e-014 1.11319e-014
lhumerus -34.9895 29.5258 74.3239
lradius 22.0523
lwrist -28.3158
lhand -16.3029 27.9821
lfingers 7.12502
lthumb 9.90797 57.729
rfemur -6.5102 6.41096 15.9277
rtibia 21.4777
rfoot -14.6394 -12.5316
rtoes -2.10131
lfemur -6.05888 -2.44298 -19.1557
ltibia 15.5572
lfoot -10.3626 8.21266
ltoes -3.75506
289
root 7.47211 18.3744 -9.89376 0.768912 -8.70676 4.20446
lowerback -3.87086 -0.0484219 -3.59265
upperback 0.767711 0.124536 -0.405429
thorax 2.95618 0.00312936 1.60542
lowerneck -7.85643 -2.9451 -2.03984
upperneck 32.9968 -9.35299 15.7267
head 13.3468 -2.61216 5.33064
rclavicle 2.21893e-014 -1.98785e-015
rhumerus -34.4564 -15.1315 -78.3614
rradius 27.9579
rwrist 21.4611
rhand -24.4177 24.4542
rfingers 7.12502
rthumb 2.07393 -5.51551
lclavicle 2.21893e-014 -1.98785e-015
lhumerus -35.8712 27.4343 73.679
lradius 22.2787
lwrist -25.8925
lhand -21.0726 25.4405
lfingers 7.12502
lthumb 5.30421 55.3541
rfemur -6.49196 6.28463 16.1599
rtibia 21.4124
rfoot -14.6111 -12.3735
rtoes -3.83991
lfemur -6.01946 -2.59 -18.9191
ltibia 15.5035
lfoot -10.3643 8.40727
ltoes -3.6173
290
root 7.46215 18.3734 -9.89754 0.668946 -8.86348 4.13387
lowerback -4.90648 0.0207145 -4.27021
upperback 1.52172 0.301548 0.182831
thorax 4.30969 0.0324917 2.61272
lowerneck -8.28729 -2.98396 -2.52606
upperneck 32.7591 -9.27981 15.7707
head 13.3482 -2.62027 5.43058
rclavicle 2.98177e-015 -3.97569e-016
rhumerus -33.371 -14.7682 -77.8994
rradius 28.1428
rwrist 20.9869
rhand -24.5418 24.1423
rfingers 7.12502
rthumb 1.95411 -5.8285
lclavicle 2.98177e-015 -3.97569e-016
lhumerus -34.8096 28.2083 74.9787
lradius 22.3827
lwrist -26.6749
lhand -16.139 28.9032
lfingers 7.12502
lthumb 10.0661 58.6425
rfemur -6.40184 6.41022 16.2958
rtibia 21.4418
rfoot -14.5518 -12.3759
rtoes -2.92805
lfemur -5.77655 -2.72794 -18.8183
ltibia 15.302
lfoot -10.2797 8.68013
ltoes -3.39897
291
root 7.45425 18.3696 -9.90013 0.489745 -9.10824 4.22254
lowerback -4.09476 0.149749 -3.79038
upperback 1.09246 0.411262 -0.219682
thorax 3.40045 0.128258 1.92834
lowerneck -8.15718 -2.99769 -1.76333
upperneck 33.2732 -9.44982 15.4341
head 13.5195 -2.62479 5.16067
rclavicle -5.52621e-014 1.47101e-014
rhumerus -34.3403 -15.0506 -78.1697
rradius 28.4725
rwrist 21.0589
rhand -25.0303 24.7044
rfingers 7.12502
rthumb 1.48234 -5.27017
lclavicle -5.52621e-014 1.47101e-014
lhumerus -35.5707 27.5463 74.1866
lradius 22.8196
lwrist -27.4478
lhand -13.4411 29.6944
lfingers 7.12502
lthumb 12.668 59.2902
rfemur -6.32469 6.36757 16.2245
rtibia 21.5391
rfoot -14.4837 -12.1645
rtoes -0.364234
lfemur -5.42452 -3.00165 -18.9088
ltibia 15.027
lfoot -10.2856 9.25068
ltoes -2.80478
292
root 7.44786 18.3654 -9.90366 0.29288 -9.1843 4.46384
lowerback -3.87055 0.128593 -4.08227
upperback 1.07296 0.385559 -0.163543
thorax 3.25385 0.112058 2.14682
lowerneck -8.08058 -2.99439 -1.4904
upperneck 33.3146 -9.3294 14.9139
head 13.4539 -2.59725 4.91007
rclavicle 1.72197e-014 -7.95139e-016
rhumerus -34.484 -15.0269 -77.9982
rradius 28.6388
rwrist 21.1138
rhand -25.5132 25.0517
rfingers 7.12502
rthumb 1.01594 -4.92558
lclavicle 1.72197e-014 -7.95139e-016
lhumerus -35.8528 27.8709 74.1279
lradius 23.0661
lwrist -28.2848
lhand -12.9607 29.0633
lfingers 7.12502
lthumb 13.131 58.6299
rfemur -6.26593 6.04758 15.9509
rtibia 21.6541
rfoot -14.5583 -11.7391
rtoes -3.17394
lfemur -5.11134 -3.46196 -19.1818
ltibia 14.7698
lfoot -10.4682 9.86814
ltoes -0.416906
293
root 7.4388 18.369 -9.90926 0.175627 -9.21578 4.67853
lowerback -4.45609 0.0907501 -4.62917
upperback 1.59369 0.401048 0.0669698
thorax 4.12154 0.0770445 2.69945
lowerneck -8.41639 -2.95955 -1.67824
upperneck 33.0184 -9.16764 14.8509
head 13.3776 -2.55153 4.91812
rclavicle 1.52816e-014 4.37326e-015
rhumerus -33.6569 -15.0229 -77.8108
rradius 28.6846
rwrist 21.0853
rhand -25.6943 25.2357
rfingers 7.12502
rthumb 0.841011 -4.74241
lclavicle 1.52816e-014 4.37326e-015
lhumerus -34.9837 28.3437 74.9385
lradius 22.8185
lwrist -28.0446
lhand -13.5215 28.3766
lfingers 7.12502
lthumb 12.5905 57.9772
rfemur -6.27396 5.98859 15.7159
rtibia 21.7502
rfoot -14.744 -11.4559
rtoes -3.24594
lfemur -4.88873 -3.75047 -19.4154
ltibia 14.5621
lfoot -10.562 10.1254
ltoes 1.27857
294
root 7.42503 18.3739 -9.9161 0.195356 -9.37205 4.53704
lowerback -3.58245 0.205739 -3.78098
upperback 1.07619 0.469901 -0.499084
thorax 3.09329 0.166243 1.63519
lowerneck -8.39014 -2.90116 -0.985382
upperneck 33.4691 -9.39368 15.0505
head 13.5962 -2.5268 4.87433
rclavicle 8.38623e-016 -1.03368e-014
rhumerus -34.5253 -15.5441 -78.3849
rradius 28.7936
rwrist 21.1249
rhand -25.6674 25.9175
rfingers 7.12502
rthumb 0.866948 -4.0605
lclavicle 8.38623e-016 -1.03368e-014
lhumerus -35.2926 26.7947 74.2808
lradius 22.7227
lwrist -26.5454
lhand -14.2075 28.0938
lfingers 7.12502
lthumb 11.929 57.734
rfemur -6.3807 6.20912 15.9138
rtibia 21.868
rfoot -14.8141 -11.3924
rtoes -1.63575
lfemur -4.71539 -3.95822 -19.2251
ltibia 14.3115
lfoot -10.266 10.4231
ltoes -1.75879
295
root 7.41172 18.3702 -9.92159 0.166619 -9.60262 4.34413
lowerback -3.98144 0.271576 -3.9333
upperback 1.39042 0.583142 -0.209553
thorax 3.63363 0.201948 2.0311
lowerneck -8.44988 -2.93649 -1.14816
upperneck 33.1477 -9.34202 15.0264
head 13.4616 -2.53694 4.87855
rclavicle -1.23122e-014 3.18055e-015
rhumerus -33.9577 -15.6256 -78.1497
rradius 28.6106
rwrist 21.0929
rhand -25.5995 26.5982
rfingers 7.12502
rthumb 0.932516 -3.3795
lclavicle -1.23122e-014 3.18055e-015
lhumerus -34.6627 26.7059 74.9744
lradius 22.8147
lwrist -26.1422
lhand -14.4145 28.5422
lfingers 7.12502
lthumb 11.7294 58.1938
rfemur -6.41795 6.13199 16.1877
rtibia 21.9921
rfoot -14.7406 -11.2764
rtoes -2.20117
lfemur -4.49378 -4.2185 -18.9773
ltibia 14.0513
lfoot -9.9882 10.8693
ltoes -3.44105
296
root 7.39966 18.3761 -9.92505 0.0717662 -9.84578 4.35376
lowerback -4.03241 0.166889 -3.98749
upperback 1.40149 0.445328 -0.0999143
thorax 3.68175 0.129745 2.16568
lowerneck -8.32785 -2.75508 -1.26747
upperneck 33.3152 -9.04571 14.9442
head 13.4686 -2.43169 4.91921
rclavicle 1.86485e-014 -4.37326e-015
rhumerus -33.8713 -15.1968 -78.1706
rradius 28.4865
rwrist 21.0707
rhand -25.7253 26.7451
rfingers 7.12502
rthumb 0.811055 -3.23308
lclavicle 1.86485e-014 -4.37326e-015
lhumerus -35.0058 27.086 74.8563
lradius 23.2587
lwrist -26.4929
lhand -13.9838 28.8592
lfingers 7.12502
lthumb 12.1447 58.4867
rfemur -6.47054 6.1231 16.2309
rtibia 22.0879
rfoot -14.6665 -11.2277
rtoes -5.20994
lfemur -4.27191 -4.45404 -18.9653
ltibia 13.8705
lfoot -9.98377 11.2826
ltoes -2.22681
297
root 7.38449 18.3858 -9.93335 0.109559 -9.99127 4.30123
lowerback -4.13312 0.0171357 -4.00319
upperback 1.34833 0.245736 0.0194013
thorax 3.69646 0.0291935 2.28413
lowerneck -8.32704 -2.51714 -1.06381
upperneck 33.6505 -8.67465 14.5852
head 13.539 -2.27193 4.80462
rclavicle -6.55989e-015 -7.55382e-015
rhumerus -33.8549 -14.3928 -78.3489
rradius 28.5027
rwrist 20.7124
rhand -25.9122 26.2225
rfingers 7.12502
rthumb 0.630555 -3.75629
lclavicle -6.55989e-015 -7.55382e-015
lhumerus -35.3868 27.7904 74.5168
lradius 23.4221
lwrist -27.1041
lhand -13.5691 28.432
lfingers 7.12502
lthumb 12.5445 58.0354
rfemur -6.6427 6.38389 16.3593
rtibia 22.163
rfoot -14.6259 -11.3804
rtoes -7.03745
lfemur -4.23026 -4.39545 -18.8398
ltibia 13.7298
lfoot -9.96714 11.3435
ltoes -1.72134
298
root 7.36945 18.3855 -9.94708 0.165314 -9.99504 4.11628
lowerback -3.56925 0.0157251 -3.49476
upperback 0.950233 0.189412 -0.151829
thorax 2.97062 0.0324247 1.81527
lowerneck -8.02485 -2.46596 -0.864672
upperneck 33.8646 -8.70217 14.6701
head 13.5715 -2.25556 4.81615
rclavicle 1.50455e-014 2.38542e-015
rhumerus -34.5419 -14.3935 -78.5656
rradius 28.705
rwrist 20.7382
rhand -25.8802 25.4444
rfingers 7.12502
rthumb 0.66147 -4.53434
lclavicle 1.50455e-014 2.38542e-015
lhumerus -35.7523 27.2787 74.0689
lradius 23.2114
lwrist -27.0307
lhand -13.8625 27.8024
lfingers 7.12502
lthumb 12.2617 57.423
rfemur -6.75612 6.12866 16.6268
rtibia 22.258
rfoot -14.5606 -11.2077
rtoes -4.6911
lfemur -4.20262 -4.04207 -18.539
ltibia 13.5313
lfoot -10.0189 11.0133
ltoes -0.749053
299
root 7.35229 18.3845 -9.96015 0.125054 -10.0417 3.80324
lowerback -2.6915 0.0963521 -3.04643
upperback 0.45189 0.234567 -0.154551
thorax 1.96186 0.0834644 1.55948
lowerneck -7.76329 -2.55482 -1.1005
upperneck 34.1032 -8.91293 14.9334
head 13.6745 -2.35152 4.9609
rclavicle 1.54555e-014 -3.57812e-015
rhumerus -35.5198 -14.6451 -78.4114
rradius 29.0487
rwrist 20.9018
rhand -25.9885 25.0689
rfingers 7.12502
rthumb 0.556896 -4.91007
lclavicle 1.54555e-014 -3.57812e-015
lhumerus -36.4294 26.7789 73.8096
lradius 23.274
lwrist -27.2147
lhand -14.4932 27.5941
lfingers 7.12502
lthumb 11.6535 57.25
rfemur -6.75294 5.7873 17.0385
rtibia 22.3521
rfoot -14.5069 -10.8863
rtoes -7.60833
lfemur -4.04323 -3.68116 -18.1008
ltibia 13.3332
lfoot -10.0635 10.7119
ltoes 0.312534
